<svg width="123" height="22" viewBox="0 0 123 22" fill="none" xmlns="http://www.w3.org/2000/svg">
<path d="M1.548 18V5.31H12.258V18H10.602V6.714H3.204V18H1.548ZM19.2528 18.162C18.3648 18.162 17.5968 17.976 16.9488 17.604C16.3008 17.22 15.7968 16.68 15.4368 15.984C15.0768 15.276 14.8968 14.436 14.8968 13.464C14.8968 12.504 15.0768 11.676 15.4368 10.98C15.7968 10.272 16.3008 9.732 16.9488 9.36C17.5968 8.976 18.3648 8.784 19.2528 8.784C20.1408 8.784 20.9088 8.976 21.5568 9.36C22.2168 9.732 22.7208 10.272 23.0688 10.98C23.4288 11.676 23.6088 12.504 23.6088 13.464C23.6088 14.436 23.4288 15.276 23.0688 15.984C22.7208 16.68 22.2168 17.22 21.5568 17.604C20.9088 17.976 20.1408 18.162 19.2528 18.162ZM19.2528 16.866C20.0688 16.866 20.7228 16.578 21.2148 16.002C21.7068 15.426 21.9528 14.58 21.9528 13.464C21.9528 12.348 21.7068 11.508 21.2148 10.944C20.7228 10.38 20.0688 10.098 19.2528 10.098C18.4248 10.098 17.7648 10.38 17.2728 10.944C16.7928 11.508 16.5528 12.348 16.5528 13.464C16.5528 14.58 16.7928 15.426 17.2728 16.002C17.7648 16.578 18.4248 16.866 19.2528 16.866ZM25.1913 20.34V16.722H26.1813C26.5893 16.11 26.8833 15.39 27.0633 14.562C27.2553 13.734 27.3513 12.75 27.3513 11.61V8.946H33.8493V16.722H35.2893V20.34H33.8853V18H26.6133V20.34H25.1913ZM27.7293 16.74H32.3193V10.206H28.7913V11.898C28.7913 12.81 28.7013 13.698 28.5213 14.562C28.3413 15.414 28.0773 16.14 27.7293 16.74ZM37.4179 21.888V11.088C37.4179 10.74 37.4059 10.386 37.3819 10.026C37.3579 9.666 37.3219 9.306 37.2739 8.946H38.8579L39.0559 11.034H38.8579C39.0379 10.338 39.4219 9.792 40.0099 9.396C40.5979 8.988 41.2999 8.784 42.1159 8.784C42.9199 8.784 43.6219 8.97 44.2219 9.342C44.8219 9.714 45.2839 10.254 45.6079 10.962C45.9439 11.658 46.1119 12.492 46.1119 13.464C46.1119 14.436 45.9439 15.276 45.6079 15.984C45.2839 16.692 44.8219 17.232 44.2219 17.604C43.6219 17.976 42.9199 18.162 42.1159 18.162C41.3119 18.162 40.6159 17.964 40.0279 17.568C39.4519 17.16 39.0619 16.614 38.8579 15.93H39.0559V21.888H37.4179ZM41.7379 16.866C42.5659 16.866 43.2259 16.578 43.7179 16.002C44.2099 15.426 44.4559 14.58 44.4559 13.464C44.4559 12.348 44.2099 11.508 43.7179 10.944C43.2259 10.38 42.5659 10.098 41.7379 10.098C40.9099 10.098 40.2499 10.38 39.7579 10.944C39.2779 11.508 39.0379 12.348 39.0379 13.464C39.0379 14.58 39.2779 15.426 39.7579 16.002C40.2499 16.578 40.9099 16.866 41.7379 16.866ZM52.5057 18.162C51.6177 18.162 50.8497 17.976 50.2017 17.604C49.5537 17.22 49.0497 16.68 48.6897 15.984C48.3297 15.276 48.1497 14.436 48.1497 13.464C48.1497 12.504 48.3297 11.676 48.6897 10.98C49.0497 10.272 49.5537 9.732 50.2017 9.36C50.8497 8.976 51.6177 8.784 52.5057 8.784C53.3937 8.784 54.1617 8.976 54.8097 9.36C55.4697 9.732 55.9737 10.272 56.3217 10.98C56.6817 11.676 56.8617 12.504 56.8617 13.464C56.8617 14.436 56.6817 15.276 56.3217 15.984C55.9737 16.68 55.4697 17.22 54.8097 17.604C54.1617 17.976 53.3937 18.162 52.5057 18.162ZM52.5057 16.866C53.3217 16.866 53.9757 16.578 54.4677 16.002C54.9597 15.426 55.2057 14.58 55.2057 13.464C55.2057 12.348 54.9597 11.508 54.4677 10.944C53.9757 10.38 53.3217 10.098 52.5057 10.098C51.6777 10.098 51.0177 10.38 50.5257 10.944C50.0457 11.508 49.8057 12.348 49.8057 13.464C49.8057 14.58 50.0457 15.426 50.5257 16.002C51.0177 16.578 51.6777 16.866 52.5057 16.866ZM63.3222 18.162C61.9662 18.162 60.8922 17.736 60.1002 16.884C59.3082 16.032 58.9122 14.784 58.9122 13.14V11.574C58.9122 9.894 59.2662 8.538 59.9742 7.506C60.6822 6.474 61.7802 5.778 63.2682 5.418L66.5802 4.59L67.0662 5.922L63.3942 6.804C62.7342 6.96 62.1882 7.242 61.7562 7.65C61.3242 8.058 61.0002 8.538 60.7842 9.09C60.5802 9.642 60.4782 10.23 60.4782 10.854V11.628H60.2262C60.3702 11.088 60.5982 10.62 60.9102 10.224C61.2342 9.828 61.6362 9.528 62.1162 9.324C62.5962 9.108 63.1242 9 63.7002 9C64.4802 9 65.1642 9.18 65.7522 9.54C66.3402 9.9 66.7962 10.422 67.1202 11.106C67.4562 11.778 67.6242 12.582 67.6242 13.518C67.6242 14.478 67.4442 15.306 67.0842 16.002C66.7362 16.698 66.2382 17.232 65.5902 17.604C64.9422 17.976 64.1862 18.162 63.3222 18.162ZM63.2682 16.866C64.1082 16.866 64.7682 16.59 65.2482 16.038C65.7402 15.486 65.9862 14.664 65.9862 13.572C65.9862 12.504 65.7402 11.688 65.2482 11.124C64.7682 10.56 64.1082 10.278 63.2682 10.278C62.4282 10.278 61.7622 10.554 61.2702 11.106C60.7902 11.658 60.5502 12.444 60.5502 13.464C60.5502 14.604 60.7902 15.456 61.2702 16.02C61.7622 16.584 62.4282 16.866 63.2682 16.866ZM70.1246 18V8.946H71.7446V12.69H76.5326V8.946H78.1526V18H76.5326V13.986H71.7446V18H70.1246ZM85.3088 18.162C83.8688 18.162 82.7288 17.748 81.8888 16.92C81.0608 16.092 80.6468 14.952 80.6468 13.5C80.6468 12.54 80.8268 11.712 81.1868 11.016C81.5588 10.308 82.0688 9.762 82.7168 9.378C83.3648 8.982 84.1208 8.784 84.9848 8.784C85.8128 8.784 86.5148 8.964 87.0908 9.324C87.6668 9.672 88.1048 10.17 88.4048 10.818C88.7048 11.466 88.8548 12.234 88.8548 13.122V13.662H81.9248V12.69H87.7388L87.4328 12.924C87.4328 11.988 87.2228 11.262 86.8028 10.746C86.3948 10.23 85.7888 9.972 84.9848 9.972C84.1088 9.972 83.4308 10.278 82.9508 10.89C82.4708 11.49 82.2308 12.312 82.2308 13.356V13.518C82.2308 14.622 82.5008 15.456 83.0408 16.02C83.5928 16.584 84.3548 16.866 85.3268 16.866C85.8668 16.866 86.3708 16.788 86.8388 16.632C87.3068 16.476 87.7568 16.218 88.1888 15.858L88.7288 16.992C88.3208 17.364 87.8108 17.652 87.1988 17.856C86.5988 18.06 85.9688 18.162 85.3088 18.162ZM95.4907 18.162C94.0507 18.162 92.9107 17.748 92.0707 16.92C91.2427 16.092 90.8287 14.952 90.8287 13.5C90.8287 12.54 91.0087 11.712 91.3687 11.016C91.7407 10.308 92.2507 9.762 92.8987 9.378C93.5467 8.982 94.3027 8.784 95.1667 8.784C95.9947 8.784 96.6967 8.964 97.2727 9.324C97.8487 9.672 98.2867 10.17 98.5867 10.818C98.8867 11.466 99.0367 12.234 99.0367 13.122V13.662H92.1067V12.69H97.9207L97.6147 12.924C97.6147 11.988 97.4047 11.262 96.9847 10.746C96.5767 10.23 95.9707 9.972 95.1667 9.972C94.2907 9.972 93.6127 10.278 93.1327 10.89C92.6527 11.49 92.4127 12.312 92.4127 13.356V13.518C92.4127 14.622 92.6827 15.456 93.2227 16.02C93.7747 16.584 94.5367 16.866 95.5087 16.866C96.0487 16.866 96.5527 16.788 97.0207 16.632C97.4887 16.476 97.9387 16.218 98.3707 15.858L98.9107 16.992C98.5027 17.364 97.9927 17.652 97.3807 17.856C96.7807 18.06 96.1507 18.162 95.4907 18.162Z" fill="white"/>
<path d="M105.939 15.9393C105.354 16.5251 105.354 17.4749 105.939 18.0607C106.525 18.6464 107.475 18.6464 108.061 18.0607L105.939 15.9393ZM122.5 3C122.5 2.17157 121.828 1.5 121 1.5L107.5 1.5C106.672 1.5 106 2.17157 106 3C106 3.82843 106.672 4.5 107.5 4.5H119.5V16.5C119.5 17.3284 120.172 18 121 18C121.828 18 122.5 17.3284 122.5 16.5L122.5 3ZM108.061 18.0607L122.061 4.06066L119.939 1.93934L105.939 15.9393L108.061 18.0607Z" fill="#C9FF50"/>
</svg>
